<svg width="213" height="56" viewBox="0 0 213 56" fill="none" xmlns="http://www.w3.org/2000/svg">
<path fill-rule="evenodd" clip-rule="evenodd" d="M35.2065 40.7773V54.6908C35.2065 55.2039 34.9491 55.5001 34.574 55.5001C34.4191 55.5001 34.244 55.4496 34.0588 55.3429L27.6395 51.6493C27.3352 51.4741 27.0431 51.1678 26.8279 50.7978L25.6001 48.6869C25.3849 48.3169 25.0929 48.0105 24.7885 47.8354L23.8646 47.3037L35.2065 40.7773ZM51.6178 23.3666L55.8029 25.7748C56.4367 26.1395 56.44 26.729 55.81 27.0915L43.7201 34.0482L36.7969 30.0646V25.7573L42.1298 28.826L42.925 28.3685L51.6178 23.3666Z" fill="#A21618"/>
<path fill-rule="evenodd" clip-rule="evenodd" d="M36.7969 31.8947L42.1297 34.9633V50.707C42.1297 51.2201 41.8723 51.5163 41.4971 51.5163C41.3423 51.5163 41.1672 51.4659 40.982 51.3592L36.5318 48.7984V38.1844L31.199 35.1159L36.7969 31.8947ZM4.66251 32.2906L18.4429 40.22C18.9887 40.5341 19.6798 40.7071 20.3887 40.7071C20.8759 40.7071 21.5933 40.6264 22.2729 40.2506C22.289 40.2416 22.3053 40.2334 22.3214 40.2242L29.8737 35.8784L35.2064 38.947L22.2741 46.3886L21.6115 46.7698L21.5262 46.8189C21.3153 46.9403 21.0597 47.0198 20.7897 47.0596C20.6583 47.0789 20.5237 47.0896 20.3887 47.0896C19.9729 47.0896 19.5563 46.9979 19.238 46.8148L0.477509 36.0196C-0.156359 35.6549 -0.15954 35.0654 0.470252 34.7029L4.66251 32.2906Z" fill="#D01C1F"/>
<path fill-rule="evenodd" clip-rule="evenodd" d="M14.7833 4.48389C14.9382 4.48389 15.1132 4.53431 15.2984 4.64101L24.7887 10.1018C24.9695 10.2059 25.146 10.2586 25.3045 10.2586C25.4129 10.2586 25.5129 10.234 25.6003 10.1844L26.8281 9.48655C26.9155 9.43691 27.0155 9.41225 27.1238 9.41225C27.1933 9.41225 27.2664 9.42305 27.3415 9.44316C27.438 9.46891 27.5381 9.51052 27.6397 9.56907L28.1764 9.87786L28.9716 10.3353L34.059 13.2628C34.5718 13.5579 35.006 14.1924 35.1531 14.8078C35.1879 14.9531 35.2068 15.0974 35.2068 15.2359V29.1494L14.1508 17.0333V5.29316C14.1508 4.7801 14.4081 4.48389 14.7833 4.48389ZM43.6928 10.8387L55.803 17.8072C56.4369 18.1719 56.4401 18.7614 55.8102 19.124L43.7203 26.0806L43.7201 25.806C43.7201 25.7838 43.7201 25.7603 43.72 25.7355L43.7198 25.3809C43.7198 25.3468 43.7197 25.3114 43.7197 25.275L43.7195 25.0438C43.7195 25.0032 43.7195 24.9615 43.7195 24.9189L43.7192 24.6512C43.7192 24.6046 43.7192 24.5571 43.7191 24.5088L43.7189 24.2078C43.7177 22.7545 43.7158 20.6358 43.7132 18.5116L43.7127 18.0566C43.708 14.4196 43.7014 10.9052 43.6928 10.8387Z" fill="#009B75"/>
<path fill-rule="evenodd" clip-rule="evenodd" d="M14.1506 18.8636L35.2065 30.9796L22.2742 38.4211L21.5263 38.8514L21.5077 38.861C21.2543 39.0025 20.94 39.0858 20.6135 39.1121C20.5389 39.118 20.464 39.1221 20.3887 39.1221C19.9729 39.1221 19.5562 39.0304 19.2381 38.8474L0.477496 28.0522C-0.156372 27.6874 -0.159552 27.0979 0.470339 26.7354L14.1506 18.8636ZM21.7064 0.5C21.8614 0.5 22.0364 0.550524 22.2216 0.657119L31.7118 6.11796C31.8927 6.22208 32.0691 6.27479 32.2277 6.27479C32.3361 6.27479 32.436 6.25012 32.5234 6.20049L33.7512 5.50266C33.8387 5.45303 33.9386 5.42846 34.0469 5.42846C34.1258 5.42846 34.209 5.44154 34.295 5.46739C34.382 5.49365 34.4719 5.53288 34.5628 5.58518L40.9821 9.27898C41.616 9.64374 42.1299 10.5271 42.1299 11.2521V26.9957L36.7969 23.9271V15.2358C36.7969 15.1096 36.7889 14.9824 36.7737 14.8549C36.6341 13.6772 35.8698 12.4746 34.854 11.8901L28.9714 8.50517L28.4348 8.19638C28.015 7.95486 27.5617 7.82726 27.1238 7.82726C26.74 7.82716 26.3653 7.92484 26.0401 8.1096L25.2688 8.54797L21.0739 6.13411V1.30927C21.0739 0.796209 21.3313 0.5 21.7064 0.5Z" fill="#00664D"/>
<g clip-path="url(#clip0_2001_670)">
<path d="M78.0815 20.4699H76.8183V10.7414H78.0815V15.1193H80.8671V10.7414H82.1302V20.4699H80.8671V16.0922H78.0815V20.4699ZM84.3959 20.4699H83.2299L85.4 10.7414H87.23L89.4001 20.4699H88.1369L87.6996 18.5104H84.8331L84.3959 20.4699ZM87.5215 17.5791L86.2422 11.9644L84.9951 17.5791H87.5215ZM95.4976 20.4699H90.5582V10.7414H91.8052V19.4832H94.5907V10.7414H95.8701V19.5109H96.7284V21.7763H95.4976V20.4699ZM99.1999 20.4699H97.888V10.7414H99.0055V17.996L100.172 14.9246L101.823 10.7413H103.232V20.4699H102.099V12.7287L100.884 15.953L99.1999 20.4699ZM107.051 10.644C108.8 10.644 109.659 11.603 109.659 13.0901V18.1212C109.659 19.5943 108.8 20.5671 107.051 20.5671C105.318 20.5671 104.46 19.5943 104.46 18.1212V13.0902C104.46 11.603 105.318 10.644 107.051 10.644ZM107.051 19.5804C107.974 19.5804 108.395 19.0663 108.395 18.1768V13.0345C108.395 12.1589 107.974 11.6309 107.051 11.6309C106.144 11.6309 105.707 12.1589 105.707 13.0345V18.1768C105.707 19.0663 106.144 19.5804 107.051 19.5804ZM112.157 20.4699H110.894V10.7414H112.157V15.1193H114.943V10.7414H116.206V20.4699H114.943V16.0922H112.157V20.4699ZM118.472 20.4699H117.306L119.476 10.7414H121.306L123.476 20.4699H122.213L121.776 18.5104H118.909L118.472 20.4699ZM121.598 17.5791L120.318 11.9644L119.071 17.5791H121.598ZM126.924 18.0517C126.859 19.5943 126.374 20.4699 124.641 20.4838H124.43V19.4971C125.483 19.4971 125.661 19.0384 125.693 18.1073L126.001 10.7414H130.617V20.4699H129.353V11.7281H127.183L126.924 18.0517ZM133.203 20.4699H131.94V10.7414H133.203V15.1193H135.988V10.7414H137.252V20.4699H135.988V16.0922H133.203L133.203 20.4699ZM139.517 20.4699H138.351L140.521 10.7413H142.351L144.521 20.4699H143.258L142.821 18.5104H139.955L139.517 20.4699ZM142.643 17.5791L141.364 11.9644L140.117 17.5791H142.643ZM81.8549 28.5653V28.8154C81.8549 29.8161 81.3853 30.5387 80.4622 30.8306C81.4177 31.1086 81.8549 31.859 81.8549 32.8319V33.5964C81.8549 35.0695 81.0452 36.0423 79.2962 36.0423C77.5634 36.0423 76.7536 35.0695 76.7536 33.5964V32.6513H77.9358V33.6519C77.9358 34.5274 78.3568 35.0557 79.2637 35.0557C80.1869 35.0557 80.5917 34.5414 80.5917 33.5685V32.8041C80.5917 31.859 80.0896 31.3588 79.1342 31.3588H78.5998V30.3859H79.1989C80.0411 30.3859 80.5917 29.8995 80.5917 29.0517V28.607C80.5917 27.6064 80.1869 27.106 79.2637 27.106C78.3568 27.106 77.9358 27.6341 77.9358 28.5098V29.1629H76.7698V28.5514C76.7698 27.0643 77.5633 26.1192 79.2962 26.1192C81.0452 26.1192 81.8549 27.092 81.8549 28.5653ZM88.6585 35.9451H84.0268V37.2792H82.8122V34.9861H83.541C83.9296 34.6108 84.0106 34.1662 84.043 33.5684L84.4802 26.2164H89.0309V34.9861H89.8892V37.2792H88.6585V35.9451ZM84.7556 34.9861H87.7515V27.2033H85.6462L85.2737 33.5546C85.2252 34.2496 85.1118 34.6665 84.7556 34.9861ZM96.0758 28.5931V29.7604C96.0758 31.3031 95.2337 32.1092 93.4361 32.1092H92.3187V35.9451H91.0555V26.2165H93.5333C95.3147 26.2165 96.0758 27.1199 96.0758 28.5931ZM94.8288 29.83V28.5374C94.8288 27.6479 94.4564 27.2033 93.5333 27.2033H92.3187V31.1363H93.4361C94.3754 31.1363 94.8288 30.7612 94.8288 29.83ZM97.5252 35.9451H96.3592L98.5294 26.2165H100.359L102.529 35.9451H101.266L100.829 33.9855H97.9625L97.5252 35.9451ZM100.651 33.0543L99.3715 27.4395L98.1245 33.0543H100.651ZM108.64 28.3707V28.8293C108.64 29.8577 108.3 30.497 107.312 30.7611C108.413 31.0252 108.834 31.7756 108.834 32.8458V33.6658C108.834 35.1251 108.008 35.9451 106.243 35.9451H103.636V26.2165H106.178C107.944 26.2165 108.64 26.9391 108.64 28.3707ZM107.393 29.0517V28.4819C107.393 27.6202 107.053 27.2033 106.146 27.2033H104.899V30.3442H105.871C106.875 30.3442 107.393 30.0662 107.393 29.0517ZM107.587 33.638V32.7764C107.587 31.6922 107.085 31.331 106 31.331H104.899V34.9583H106.243C107.166 34.9583 107.587 34.5414 107.587 33.638ZM111.277 35.9451H110.013V26.2165H111.277V30.5944H114.062V26.2165H115.325V35.9451H114.062V31.5673H111.277V35.9451ZM119.152 26.1192C120.901 26.1192 121.76 27.0782 121.76 28.5653V33.5964C121.76 35.0695 120.901 36.0423 119.152 36.0423C117.42 36.0423 116.561 35.0695 116.561 33.5964V28.5653C116.561 27.0782 117.419 26.1192 119.152 26.1192ZM119.152 35.0557C120.075 35.0557 120.496 34.5414 120.496 33.6519V28.5097C120.496 27.6341 120.075 27.1059 119.152 27.1059C118.245 27.1059 117.808 27.6341 117.808 28.5097V33.6519C117.808 34.5414 118.245 35.0557 119.152 35.0557ZM124.185 35.9451H122.873V26.2165H123.991V33.4712L125.157 30.3997L126.809 26.2165H128.218V35.9451H127.084V28.2039L125.869 31.4282L124.185 35.9451ZM130.775 35.9451H129.512V26.2165H130.775V30.5944H133.56V26.2165H134.824V35.9451H133.56V31.5673H130.775L130.775 35.9451ZM144.106 29.7883V32.4428C144.106 33.9855 143.297 34.8749 141.483 34.8749H140.689V35.9451H139.442V34.8749H138.649C136.835 34.8749 136.025 33.9855 136.025 32.4428V29.7883C136.025 28.2456 136.835 27.3561 138.649 27.3561H139.442V26.2165H140.689V27.3561H141.483C143.297 27.3561 144.106 28.2456 144.106 29.7883ZM137.272 29.7188V32.5122C137.272 33.4435 137.693 33.9299 138.649 33.9299H139.442V28.3151H138.649C137.693 28.3151 137.272 28.7876 137.272 29.7188ZM142.876 32.5122V29.7188C142.876 28.7876 142.455 28.3151 141.483 28.3151H140.689V33.9299H141.483C142.438 33.9299 142.876 33.4435 142.876 32.5122ZM147.878 26.1192C149.627 26.1192 150.486 27.0782 150.486 28.5653V33.5964C150.486 35.0695 149.627 36.0423 147.878 36.0423C146.146 36.0423 145.287 35.0695 145.287 33.5964V28.5653C145.287 27.0782 146.146 26.1192 147.878 26.1192ZM147.878 35.0557C148.801 35.0557 149.223 34.5414 149.223 33.6519V28.5097C149.223 27.6341 148.801 27.1059 147.878 27.1059C146.971 27.1059 146.534 27.6341 146.534 28.5097V33.6519C146.534 34.5414 146.971 35.0557 147.878 35.0557ZM156.742 28.5931V29.7604C156.742 31.3031 155.9 32.1092 154.102 32.1092H152.985V35.9451H151.721V26.2165H154.199C155.981 26.2165 156.742 27.1199 156.742 28.5931ZM155.495 29.83V28.5374C155.495 27.6479 155.122 27.2033 154.199 27.2033H152.985V31.1363H154.102C155.041 31.1363 155.495 30.7612 155.495 29.83ZM160.821 35.9312L158.943 28.1901V35.9452H157.841V26.2165H159.607L161.469 33.9855L163.267 26.2165H165.032V35.9452H163.834V28.1205L162.036 35.9312H160.821ZM167.306 35.9451H166.14L168.31 26.2164H170.14L172.31 35.9451H171.047L170.61 33.9855H167.743L167.306 35.9451ZM170.431 33.0543L169.152 27.4395L167.905 33.0543H170.431ZM178.408 35.9451H173.468V26.2165H174.715V34.9583H177.501V26.2165H178.78V34.9861H179.638V37.2514H178.408L178.408 35.9451ZM182.11 35.9451H180.798V26.2165H181.915V33.4712L183.081 30.3997L184.733 26.2165H186.142V35.9451H185.009V28.2039L183.794 31.4282L182.11 35.9451ZM189.961 26.1191C191.71 26.1191 192.569 27.0782 192.569 28.5652V33.5964C192.569 35.0695 191.71 36.0423 189.961 36.0423C188.228 36.0423 187.37 35.0695 187.37 33.5964V28.5653C187.37 27.0782 188.228 26.1191 189.961 26.1191ZM189.961 35.0556C190.884 35.0556 191.305 34.5413 191.305 33.6519V28.5097C191.305 27.6341 190.884 27.1059 189.961 27.1059C189.054 27.1059 188.617 27.6341 188.617 28.5097V33.6519C188.617 34.5414 189.054 35.0556 189.961 35.0556ZM195.067 35.9451H193.804V26.2165H195.067V30.5944H197.853V26.2165H199.116V35.9451H197.853V31.5673H195.067V35.9451ZM201.681 35.9451H200.418V26.2165H201.681V30.5944H204.467V26.2165H205.73V35.9451H204.467V31.5673H201.681V35.9451ZM207.996 35.9451H206.83L209 26.2164H210.83L213 35.9451H211.737L211.3 33.9854H208.433L207.996 35.9451ZM211.121 33.0543L209.842 27.4395L208.595 33.0543H211.121ZM81.8225 44.0403V44.9159H80.6241V43.9848C80.6241 43.1092 80.2193 42.581 79.2962 42.581C78.3892 42.581 77.9682 43.1092 77.9682 43.9848V49.127C77.9682 50.0025 78.3892 50.5308 79.2962 50.5308C80.2193 50.5308 80.6241 50.0025 80.6241 49.127V47.8623H81.8225V49.0714C81.8225 50.5446 81.0128 51.5174 79.2637 51.5174C77.5309 51.5174 76.7212 50.5446 76.7212 49.0714V44.0403C76.7212 42.5671 77.5309 41.5942 79.2637 41.5942C81.0128 41.5942 81.8225 42.5671 81.8225 44.0403ZM84.3133 51.4202H83.0015V41.6916H84.119V48.9463L85.285 45.8748L86.9368 41.6916H88.3457V51.4202H87.2122V43.679L85.9975 46.9033L84.3133 51.4202ZM94.6749 44.0403V44.9159H93.4765V43.9848C93.4765 43.1092 93.0717 42.581 92.1486 42.581C91.2417 42.581 90.8207 43.1092 90.8207 43.9848V49.127C90.8207 50.0025 91.2417 50.5308 92.1486 50.5308C93.0717 50.5308 93.4765 50.0025 93.4765 49.127V47.8623H94.6749V49.0714C94.6749 50.5446 93.8652 51.5174 92.1162 51.5174C90.3834 51.5174 89.5736 50.5446 89.5736 49.0714V44.0403C89.5736 42.5671 90.3833 41.5942 92.1162 41.5942C93.8652 41.5942 94.6749 42.5671 94.6749 44.0403ZM97.658 42.6784H95.5688V41.6916H101.01V42.6784H98.9212V51.4202H97.658V42.6784ZM106.128 46.9729H103.359V50.4334H106.76V51.4202H102.095V41.6916H106.76V42.6784H103.359V46H106.128V46.9729ZM110.918 51.4063L109.04 43.6652V51.4202H107.939V41.6916H109.704L111.566 49.4606L113.364 41.6916H115.129V51.4202H113.931V43.5956L112.133 51.4063L110.918 51.4063ZM117.403 51.4202H116.237L118.407 41.6916H120.237L122.407 51.4202H121.144L120.707 49.4606H117.84L117.403 51.4202ZM120.529 48.5294L119.249 42.9146L118.002 48.5294H120.529ZM67.4514 55.1108V0.889213C67.4514 0.785987 67.4103 0.686989 67.3371 0.613998C67.2639 0.541006 67.1646 0.5 67.0611 0.5C66.9575 0.5 66.8583 0.541006 66.785 0.613998C66.7118 0.686989 66.6707 0.785987 66.6707 0.889213V55.1108C66.6707 55.214 66.7118 55.313 66.785 55.386C66.8583 55.459 66.9575 55.5 67.0611 55.5C67.1646 55.5 67.2639 55.459 67.3371 55.386C67.4103 55.313 67.4514 55.214 67.4514 55.1108Z" fill="#00130F"/>
</g>
<defs>
<clipPath id="clip0_2001_670">
<rect width="146.329" height="55" fill="white" transform="translate(66.6707 0.5)"/>
</clipPath>
</defs>
</svg>
